<?xml version="1.0" encoding="UTF-8" standalone="no"?>
<svg
   width="290pt"
   height="290pt"
   viewBox="0 0 289.99999 289.99998"
   version="1.1"
   id="svg50"
   sodipodi:docname="002_Logo Blackiot_POS_Ship.svg"
   inkscape:export-filename="002_Logo Blackiot_POS_Ship_100.png"
   inkscape:export-xdpi="24.827587"
   inkscape:export-ydpi="24.827587"
   inkscape:version="1.2.2 (b0a8486541, 2022-12-01)"
   xmlns:inkscape="http://www.inkscape.org/namespaces/inkscape"
   xmlns:sodipodi="http://sodipodi.sourceforge.net/DTD/sodipodi-0.dtd"
   xmlns="http://www.w3.org/2000/svg"
   xmlns:svg="http://www.w3.org/2000/svg">
  <defs
     id="defs54" />
  <sodipodi:namedview
     id="namedview52"
     pagecolor="#ffffff"
     bordercolor="#666666"
     borderopacity="1.0"
     inkscape:showpageshadow="2"
     inkscape:pageopacity="0.0"
     inkscape:pagecheckerboard="0"
     inkscape:deskcolor="#d1d1d1"
     inkscape:document-units="pt"
     showgrid="false"
     inkscape:zoom="0.99406997"
     inkscape:cx="130.27252"
     inkscape:cy="280.16137"
     inkscape:window-width="1920"
     inkscape:window-height="1011"
     inkscape:window-x="0"
     inkscape:window-y="0"
     inkscape:window-maximized="1"
     inkscape:current-layer="svg50" />
  <g
     id="g341"
     transform="translate(17.791022,1.300785)">
    <path
       fill-rule="nonzero"
       fill="#3c5ab2"
       fill-opacity="1"
       d="m 1.257815,156.07031 2.07031,-2.85938 55.92187,33.73047 7.69532,-2.26953 41.785145,5.94922 38.45703,43.63281 4.41016,-1.70312 43.98828,-26.95703 37.07813,-1.60547 -6.41407,55.51562 -10.32031,6.81641 -23.14844,1.10156 -13.52734,-4.20703 -16.13281,5.60937 -20.04297,-0.60156 -12.92578,-4.41015 -23.85156,7.61718 -13.484375,-4.30468 -36.91797,-47.5 -12.625,-25.15625 -42.01562,-38.39844"
       id="path2" />
    <path
       fill-rule="nonzero"
       fill="#231f20"
       fill-opacity="1"
       d="m 226.90624,230.05859 -0.86328,6.6875 -24.17578,0.69531 23.58203,3.9375 -0.78906,6.15235 -25.86719,-0.25 25.21485,5.30859 -0.65625,5.13672 -28.26952,-0.29297 20.92968,4.37109 c -3.79687,1.42969 -8.89453,2.64063 -15.41015,2.67969 -15.52344,0.0898 -21.38672,-6.65625 -21.38672,-6.65625 0,0 -3.76173,7.97266 -18.79688,9.08594 -15.03125,1.10937 -28.13281,-5.67969 -28.13281,-5.67969 l -26.23437,7.19922 -11.601575,-5.79297 61.187505,-10.24609 -68.441405,2.92968 c -2.00391,-2.24609 -3.95703,-4.63281 -5.84375,-7.15625 l 40.421875,-7.1289 -44.589845,1.16797 c -2.03906,-3.125 -3.98047,-6.40235 -5.78906,-9.83985 -0.54297,-1.03515 -1.07032,-2.07812 -1.57813,-3.11718 l 43.203135,-4.59375 -46.171885,-1.96485 c -1.62891,-3.90234 -3.01562,-7.79687 -4.14844,-11.64453 l 47.507825,-2.41797 -55.886725,-5.47265 -2.19141,-8.81641 -49.45703,-37.73047 1.01562,-2.33594 55.92969,36.1211 -0.83984,8.79297 7.53125,-12.60547 39.812505,5.99609 40.35937,46.26563 48.0625,-4.35547 0.57032,-25.73438 34.8203,-2.27344 -0.98438,7.66797 -23.61717,3.3086 23.02733,1.26562 -0.875,6.82422 -23.48046,1.99609 z M 89.585935,180.3125 c -3.53125,-2.67579 -16.41015,-14.35938 -12.75,-40.25391 3.07813,-21.76953 15.69922,-41.703126 22.34766,-50.953126 2.015615,14.921876 11.527335,20.675786 11.527335,20.675786 0,0 6.83594,-7.03907 23.46485,-9.65235 1.38671,-0.218746 2.75,-0.367186 4.10546,-0.488276 l -0.49609,13.886716 -41.089835,4.94531 c -7.75391,8.48438 -12.73047,21.58203 -12.73047,36.28516 0,9.45703 2.08594,18.22656 5.62109,25.55469 z m 44.140625,-142.222656 0.51172,1.85547 c 1.8164,0.76172 3.90625,1.22656 6.13281,1.36719 l -0.17969,5.0039 -18.14062,3.05078 z M 157.17187,189.875 c 4.07812,7.98828 9.74219,10.73828 9.74219,10.73828 0,0 8.16406,-9.64063 25.17187,-11.92188 0.47656,-0.0625 0.95313,-0.11719 1.4375,-0.16797 l -0.49609,14.82032 -45.79297,9.19531 -0.5625,19.60937 -26.64844,-30.26562 z m 8.44141,-87.58594 c -0.71094,2.58984 -1.2461,5.28515 -1.5625,8.07812 l -19.90235,2.39453 -0.11328,-13.390616 c 10.92969,-0.0508 19.73828,2.371086 21.57813,2.917966 z m 30.02343,22.94531 -0.28515,8.56641 -25.40625,4.74609 1.32423,-6.05859 c 0,0 4.67187,-5.7461 17.40233,-6.96485 2.12109,-0.20312 4.49219,-0.28906 6.96484,-0.28906 z M 165.92187,72.203124 c 0.67188,-0.51953 1.33203,-0.94922 1.94142,-1.21875 4.03514,-1.76562 9.08202,3.91406 13.5,3.53516 4.41406,-0.37891 6.68358,-7.57032 9.96483,-8.70703 2.29298,-0.79297 4.88673,0.6289 6.24609,1.55859 l -0.0781,2.32812 c -0.25,-0.008 -0.48438,-0.0391 -0.73828,-0.0391 -3.92187,0 -7.46485,0.97656 -9.99219,2.55078 l 3.19142,11.1211 c 1.66796,0.86718 3.88281,1.39843 6.32031,1.39843 0.24609,0 0.47265,-0.0352 0.71875,-0.0469 l -0.0352,0.95312 -25.49609,3.35157 c -0.9336,1.44531 -1.78906,2.96875 -2.57031,4.5625 -0.70704,-0.99219 -4.98047,-7.6875 -2.97266,-21.34766 z m 88.49609,198.085936 c 0,0 -23.8164,-8.77735 -25.86717,-10.01172 l 7.25,-58.90625 -36.9961,1.38281 0.0586,-14.53906 c 15.30859,-0.23828 31.12108,4.61719 31.12108,4.61719 -4.69141,-8.89844 -7.49219,-20.17188 -7.49219,-32.4336 0,-12.58593 2.94922,-24.125 7.86719,-33.1289 l -31.27733,5.83593 0.0312,-7.82031 c 11.52734,0.32031 23.8828,2.06641 23.8828,2.06641 -2.41797,-5.51953 -3.78516,-11.79688 -3.78516,-18.45313 0,-10.597646 3.46485,-20.230466 9.1211,-27.382806 l -29.0625,3.82031 0.004,-0.91797 c 1.53517,-0.29687 2.91406,-0.78906 3.97656,-1.46484 l 2.77344,-11.16797 c -1.85547,-0.99609 -4.15233,-1.69531 -6.6914,-1.98047 l 0.0586,-14.66797 h -1.41017 l -0.0742,2.23829 c -1.42187,-0.76563 -5.2539,-2.35157 -10.48828,-0.76954 -5.83202,1.75782 -4.79297,8.44922 -8.20312,9.96485 -3.40235,1.51562 -4.53516,-1.19922 -9.71094,-1.26172 -0.81641,-0.008 -1.57031,0.0898 -2.27733,0.25781 3.76562,-16.23437 9.71875,-25.42578 9.71875,-25.42578 l -33.35938,5.60547 -0.0351,-4.46875 c 2.90625,-0.26563 5.54687,-1.12109 7.64062,-2.39844 l 3.43359,-15.21875 c -3.08203,-1.36718 -6.98828,-2.1875 -11.24219,-2.19531 L 143.20312,0 h -1.35156 l -0.17188,4.730469 c -2.14062,-0.894531 -7.92187,-2.96875 -14.01562,-2.335937 -7.6875,0.800781 -12.81641,10.093752 -17.14453,13.140622 -4.32422,3.04297 -14.101565,0.16016 -21.152345,2.08203 -7.05078,1.92579 -12.97656,13.94141 -12.97656,13.94141 0,0 10.73437,-7.69141 16.34375,-7.53125 5.60547,0.16016 13.300775,3.52734 19.386715,1.28125 6.08984,-2.24219 10.41797,-9.29297 16.82812,-9.45312 4.69141,-0.11719 9.80469,2.16796 12.21094,3.40234 l -0.082,2.28906 c -4.34766,0.30078 -8.22266,1.45313 -11.04297,3.14844 l 3.19141,11.58594 -14.98047,13.72265 -8.85938,1.48828 c 0,0 -8.95703,11.46875 -10.382805,27.65235 L 7.765625,151.22265 c 0.14844,0.45313 58.64844,24.98828 82.54687,34.99219 l -38.45312,-5.625 -49.64844,-29.05469 -2.21094,4.28906 43.2461,48.06641 c 1.73437,10.76953 5.53906,22.31641 11.49609,33.64844 2.01172,3.82812 4.82813,8.47656 7.22656,12.07031 -32.15234,-8.42969 -40.71875,17.71484 -40.71875,17.71484 0,0 9.32422,-12.78125 33.91407,-8.24609 24.58593,4.53516 77.722645,28.32031 77.722645,28.32031 0,0 -7.82422,-6.19531 -21.09375,-14.23437 3.97657,-1.67578 17.71875,-7.47266 17.96875,-7.64063 l 56.1211,13.94922 -17.02735,-9.9414 10.62891,-3.77735 46.37109,14.60156 -18.49609,-10.0664 20.25781,-4.78125 26.80078,4.78125"
       id="path4" />
    <path
       fill-rule="nonzero"
       fill="#3c5ab2"
       fill-opacity="1"
       d="m 133.01562,26.164064 c 2.78906,-1.46094 6.38672,-2.34375 10.31641,-2.34375 2.66015,0 5.16796,0.40625 7.375,1.12109 l 0.39843,0.1836 c -0.875,0.004 -1.78515,0.0508 -2.71484,0.14453 -3.625,0.36719 -6.78906,1.3789 -8.79297,2.66406 l 1.92578,9 c -1.99219,0.14063 -3.79297,0.54297 -5.24219,1.12109 l -3.26562,-11.89062"
       id="path46" />
    <path
       fill-rule="nonzero"
       fill="#3c5ab2"
       fill-opacity="1"
       d="m 189.10156,73.187504 c 2.16406,-1.21485 4.95312,-1.94532 7.99609,-1.94532 2.13672,0 4.14844,0.35938 5.90234,0.9961 0,0 -1.69531,-0.20313 -4.85546,0.67968 -3.16407,0.87891 -3.85938,1.66407 -3.85938,1.66407 l 1.66406,7.0625 c -1.48828,0.10937 -2.89453,0.39843 -4.17578,0.84375 l -2.67187,-9.30078"
       id="path48" />
  </g>
</svg>
